<svg xmlns="http://www.w3.org/2000/svg" viewBox="0 0 630 630">
  <rect width="630" height="630" fill="#f7df1e"/>
  <path d="m423.07 492.19c12.69 20.72 29.2 35.92 58.4 35.92 24.53 0 40.2-12.26 40.2-29.2 0-20.3-16.1-27.49-43.1-39.3l-14.8-6.35c-42.72-18.17-71.16-40.58-71.16-88.75 0-44.4 33.42-78.18 86.63-78.18 51.53 0 81 26.22 93.3 51.52l-51.13 32.54c-7.62-14.8-19-24.53-39.73-24.53-18.17 0-29.2 9.3-29.2 21.56 0 15.22 9.77 20.72 32.1 30.45l14.8 6.35c53.71 23.26 82.46 45.1 82.46 95.53 0 54.55-43.14 84.14-96.78 84.14-63.45 0-96.4-32.96-112.9-61.16zm-207.6 0c14.37 25.37 35.93 42.66 68.9 42.66 30.86 0 50.78-15.65 50.78-68.9v-177.21h62.15v177.63c0 85.84-49.03 124.78-112.5 124.78-57.1 0-96-26.65-117.75-65.41z"/>
</svg>
